# xmcd CD database file
#
# Track frame offsets:
#	150
#	17218
#	38377
#	53144
#	71685
#	93502
#	109032
#	122930
#	136349
#	155403
#	169244
#	182289
#	198707
#	216157
#	236864
#	253340
#
# Disc length: 3506 seconds
#
# Revision: 0
# Processed by: cddbd v1.5.1PL0 Copyright (c) Steve Scherf et al.
# Submitted via: CDex 1.51
#
DISCID=e70db010
DTITLE=Pino Daniele - Tra musica e magia
DYEAR=1900
DGENRE=Blues
TTITLE0=Je sto vicino a te
TTITLE1=Quanno chiove
TTITLE2=Alleria
TTITLE3=Voglio di più
TTITLE4=Uè man
TTITLE5='Na tazzulella 'e cafè
TTITLE6=Je so' pazzo
TTITLE7=Che calore
TTITLE8=I say i' sto cca'
TTITLE9=A me me piace o' blues
TTITLE10=Musica musica
TTITLE11=Nun me scoccia'
TTITLE12=Napule è
TTITLE13=E so' cuntento 'e sta
TTITLE14=Basta 'na jurnata 'e sole
TTITLE15=Terra mia
EXTD=
EXTT0=
EXTT1=
EXTT2=
EXTT3=
EXTT4=
EXTT5=
EXTT6=
EXTT7=
EXTT8=
EXTT9=
EXTT10=
EXTT11=
EXTT12=
EXTT13=
EXTT14=
EXTT15=
PLAYORDER=
